<?xml version="1.0" encoding="utf-8"?>
<!-- Generator: Adobe Illustrator 16.0.3, SVG Export Plug-In . SVG Version: 6.00 Build 0)  -->
<!DOCTYPE svg PUBLIC "-//W3C//DTD SVG 1.1//EN" "http://www.w3.org/Graphics/SVG/1.1/DTD/svg11.dtd">
<svg version="1.1" xmlns="http://www.w3.org/2000/svg" xmlns:xlink="http://www.w3.org/1999/xlink" x="0px" y="0px" width="500px"
	 height="500px" viewBox="0 0 500 500" enable-background="new 0 0 500 500" xml:space="preserve">
<g id="Capa_3">
	<circle fill-rule="evenodd" clip-rule="evenodd" fill="#E24B4B" cx="248.203" cy="250" r="220.333"/>
</g>
<g id="Capa_1">
	<path fill-rule="evenodd" clip-rule="evenodd" fill="#664040" d="M184.261,210.402c0-20.783-0.508-41.58,0.118-62.344
		c0.929-30.752,26.381-57.158,57.029-60.125c33.099-3.206,61.685,16.547,70.071,48.372c1.105,4.196,1.438,8.487,1.998,12.755
		c0.304,2.331-0.562,3.057-2.879,3.033c-9.582-0.1-19.166-0.087-28.747-0.007c-2.126,0.016-2.907-0.442-3.124-2.856
		c-1.346-14.998-13.521-26.596-28.561-27.512c-14.102-0.859-27.582,9.284-30.866,23.44c-0.661,2.856-0.795,5.887-0.801,8.838
		c-0.061,35.9-0.004,71.8-0.137,107.701c-0.014,3.314,1.017,4.096,4.114,3.949c6.837-0.328,5.94,0.963,5.946-6.102
		c0.027-34.414,0.054-68.832-0.079-103.245c-0.014-3.326,0.733-4.341,4.174-4.229c8.238,0.263,8.243,0.073,8.243,8.145
		c0,37.925-0.046,75.851,0.084,113.778c0.009,3.242-0.896,3.961-3.979,3.889c-9.037-0.209-18.083-0.168-27.123-0.02
		c-2.636,0.045-3.681-0.371-3.671-3.41c0.121-40.76,0.025-81.519,0.117-122.276c0.048-21.035,14.744-38.208,35.612-41.98
		c19.534-3.531,39.195,7.741,46.694,26.774c0.896,2.275,8.424,4.176,10.346,2.592c0.959-0.792,0.349-1.843,0.107-2.615
		c-6.529-20.863-24.123-35.337-44.983-37.052c-27.6-2.268-49.903,14.237-56.453,40.998c-0.928,3.792-1.27,7.684-1.265,11.622
		c0.037,40.487-0.02,80.978,0.102,121.467c0.009,3.184-0.791,3.984-3.919,3.904c-8.316-0.215-8.32-0.061-8.322-8.371
		c0-19.704,0-39.409,0-59.115C184.161,210.402,184.21,210.402,184.261,210.402z"/>
	<g>
		<path fill-rule="evenodd" clip-rule="evenodd" fill="#E2E2E2" d="M313.341,222.009c0,20.783,0.509,41.582-0.119,62.345
			c-0.927,30.754-26.38,57.16-57.027,60.127c-33.1,3.203-61.686-16.549-70.073-48.375c-1.105-4.193-1.438-8.484-1.998-12.754
			c-0.305-2.33,0.561-3.057,2.88-3.031c9.582,0.1,19.164,0.084,28.746,0.006c2.127-0.018,2.908,0.438,3.125,2.857
			c1.345,14.998,13.521,26.596,28.559,27.51c14.104,0.861,27.584-9.283,30.867-23.441c0.662-2.855,0.795-5.887,0.801-8.838
			c0.061-35.9,0.006-71.801,0.139-107.702c0.012-3.314-1.019-4.096-4.116-3.948c-6.835,0.327-5.94-0.962-5.946,6.1
			c-0.026,34.416-0.053,68.832,0.08,103.248c0.013,3.326-0.732,4.34-4.176,4.23c-8.237-0.268-8.242-0.074-8.242-8.15
			c0-37.923,0.045-75.849-0.082-113.774c-0.01-3.243,0.895-3.96,3.978-3.89c9.037,0.209,18.083,0.169,27.125,0.02
			c2.634-0.043,3.678,0.371,3.669,3.409c-0.119,40.759-0.025,81.519-0.117,122.279c-0.047,21.031-14.744,38.205-35.613,41.977
			c-19.534,3.533-39.192-7.74-46.692-26.773c-0.896-2.273-8.424-4.178-10.345-2.592c-0.96,0.791-0.349,1.844-0.108,2.613
			c6.528,20.867,24.122,35.34,44.983,37.053c27.599,2.271,49.903-14.238,56.451-40.996c0.93-3.791,1.271-7.684,1.267-11.621
			c-0.036-40.491,0.02-80.98-0.103-121.469c-0.008-3.183,0.791-3.983,3.922-3.902c8.314,0.216,8.318,0.062,8.318,8.369
			c0,19.704,0,39.409,0,59.114C313.442,222.009,313.392,222.009,313.341,222.009z"/>
	</g>
</g>
<g id="Capa_2">
	<g>
		<rect x="200.697" y="377.462" fill-rule="evenodd" clip-rule="evenodd" fill="none" width="241.375" height="111.711"/>
		<path fill="#EAEAEA" d="M204.641,409.266v-30.084h8.56c2.602,0,4.665,0.637,6.189,1.908c1.524,1.273,2.287,2.932,2.287,4.973
			c0,1.707-0.461,3.189-1.384,4.447c-0.923,1.26-2.196,2.154-3.818,2.686v0.084c2.028,0.238,3.65,1.004,4.867,2.297
			c1.217,1.295,1.825,2.977,1.825,5.047c0,2.572-0.923,4.656-2.77,6.252c-1.846,1.594-4.175,2.391-6.986,2.391H204.641z
			 M208.165,382.371v9.713h3.608c1.93,0,3.448-0.465,4.553-1.395c1.104-0.932,1.657-2.242,1.657-3.934
			c0-2.924-1.923-4.385-5.769-4.385H208.165z M208.165,395.252v10.826h4.783c2.07,0,3.675-0.49,4.815-1.469
			c1.14-0.98,1.71-2.322,1.71-4.029c0-3.553-2.42-5.328-7.259-5.328H208.165z"/>
		<path fill="#EAEAEA" d="M244.187,409.266h-3.441v-3.355h-0.084c-1.497,2.572-3.699,3.859-6.608,3.859
			c-2.14,0-3.815-0.566-5.024-1.699c-1.21-1.133-1.815-2.637-1.815-4.51c0-4.016,2.363-6.35,7.091-7.008l6.44-0.902
			c0-3.65-1.476-5.477-4.427-5.477c-2.587,0-4.923,0.883-7.007,2.645v-3.525c2.111-1.342,4.545-2.014,7.301-2.014
			c5.049,0,7.574,2.672,7.574,8.014V409.266z M240.746,398.398l-5.182,0.713c-1.595,0.225-2.798,0.619-3.609,1.186
			s-1.217,1.57-1.217,3.012c0,1.049,0.374,1.904,1.123,2.568c0.748,0.666,1.745,0.998,2.99,0.998c1.706,0,3.115-0.598,4.227-1.795
			c1.112-1.195,1.668-2.709,1.668-4.541V398.398z"/>
		<path fill="#EAEAEA" d="M268.503,409.266h-3.441v-12.252c0-4.559-1.664-6.84-4.993-6.84c-1.72,0-3.144,0.648-4.269,1.941
			c-1.126,1.293-1.689,2.926-1.689,4.898v12.252h-3.44v-21.482h3.44v3.566h0.084c1.622-2.713,3.972-4.07,7.049-4.07
			c2.351,0,4.147,0.76,5.393,2.277c1.244,1.518,1.867,3.709,1.867,6.576V409.266z"/>
		<path fill="#EAEAEA" d="M292.817,409.266h-4.825l-9.482-10.322h-0.084v10.322h-3.44v-31.805h3.44v20.162h0.084l9.021-9.84h4.511
			l-9.966,10.363L292.817,409.266z"/>
	</g>
</g>
<g id="Capa_4">
	<g>
		<rect x="58.594" y="277.894" fill-rule="evenodd" clip-rule="evenodd" fill="none" width="209.466" height="158.889"/>
		<path fill="#664040" d="M250.099,284.608l11.974,11.974h-23.948L250.099,284.608z"/>
	</g>
	<g>
		<rect x="58.594" y="128.127" fill-rule="evenodd" clip-rule="evenodd" fill="none" width="209.467" height="158.887"/>
		<path fill="#E2E2E2" d="M262.073,137.236L250.1,149.21l-11.975-11.974H262.073z"/>
	</g>
</g>
</svg>
