<?xml version="1.0" encoding="utf-8"?>
<!-- Generator: Adobe Illustrator 16.0.3, SVG Export Plug-In . SVG Version: 6.00 Build 0)  -->
<!DOCTYPE svg PUBLIC "-//W3C//DTD SVG 1.1//EN" "http://www.w3.org/Graphics/SVG/1.1/DTD/svg11.dtd">
<svg version="1.1" id="Capa_1" xmlns="http://www.w3.org/2000/svg" xmlns:xlink="http://www.w3.org/1999/xlink" x="0px" y="0px"
	 width="500px" height="500px" viewBox="0 0 500 500" enable-background="new 0 0 500 500" xml:space="preserve">
<g id="Capa_3">
	<circle fill="#E24B4B" cx="248.203" cy="250" r="220.333"/>
</g>
<g id="Capa_1_1_">
	<path fill="#664040" d="M251.284,206.73c0,19.086-0.466,38.185,0.108,57.254c0.854,28.241,24.229,52.491,52.373,55.216
		c30.395,2.945,56.647-15.195,64.35-44.422c1.016-3.854,1.32-7.795,1.835-11.714c0.277-2.141-0.516-2.809-2.644-2.785
		c-8.8,0.092-17.602,0.08-26.4,0.006c-1.952-0.016-2.671,0.406-2.868,2.623c-1.238,13.772-12.419,24.425-26.229,25.267
		c-12.95,0.787-25.33-8.527-28.346-21.527c-0.606-2.622-0.729-5.407-0.735-8.116c-0.057-32.97-0.004-65.939-0.126-98.909
		c-0.012-3.043,0.935-3.761,3.778-3.626c6.278,0.3,5.455-0.884,5.461,5.602c0.025,31.605,0.049,63.213-0.073,94.816
		c-0.013,3.055,0.674,3.986,3.833,3.885c7.565-0.242,7.57-0.068,7.57-7.48c0-34.83-0.043-69.659,0.077-104.489
		c0.008-2.977-0.824-3.637-3.654-3.572c-8.299,0.191-16.607,0.156-24.908,0.018c-2.42-0.04-3.38,0.341-3.371,3.13
		c0.11,37.434,0.022,74.865,0.107,112.295c0.043,19.315,13.539,35.087,32.704,38.552c17.938,3.242,35.994-7.109,42.881-24.59
		c0.823-2.088,7.737-3.832,9.501-2.379c0.882,0.727,0.32,1.691,0.1,2.4c-5.996,19.16-22.153,32.453-41.31,34.027
		c-25.347,2.082-45.829-13.074-51.845-37.65c-0.853-3.48-1.164-7.056-1.16-10.673c0.035-37.181-0.018-74.366,0.093-111.55
		c0.009-2.924-0.725-3.659-3.598-3.584c-7.638,0.198-7.64,0.056-7.642,7.686c0,18.097,0,36.193,0,54.29
		C251.192,206.73,251.238,206.73,251.284,206.73z"/>
	<g>
		<path fill="#E2E2E2" d="M244.893,206.728c0,19.086,0.467,38.187-0.108,57.255c-0.853,28.241-24.228,52.491-52.372,55.218
			c-30.396,2.943-56.649-15.197-64.352-44.424c-1.014-3.854-1.32-7.795-1.834-11.714c-0.279-2.141,0.515-2.809,2.646-2.785
			c8.799,0.094,17.599,0.08,26.398,0.008c1.954-0.018,2.67,0.4,2.87,2.621c1.235,13.774,12.417,24.425,26.228,25.265
			c12.952,0.791,25.332-8.525,28.346-21.527c0.608-2.622,0.731-5.405,0.735-8.116c0.057-32.969,0.006-65.938,0.128-98.908
			c0.012-3.043-0.935-3.762-3.779-3.625c-6.278,0.299-5.456-0.884-5.461,5.601c-0.024,31.606-0.048,63.212,0.074,94.817
			c0.012,3.055-0.673,3.984-3.834,3.887c-7.565-0.246-7.57-0.07-7.57-7.484c0-34.829,0.043-69.658-0.076-104.486
			c-0.009-2.979,0.823-3.638,3.653-3.573c8.3,0.192,16.607,0.155,24.911,0.019c2.419-0.041,3.378,0.34,3.37,3.131
			c-0.109,37.431-0.023,74.862-0.107,112.296c-0.043,19.313-13.54,35.085-32.705,38.55c-17.94,3.244-35.993-7.109-42.881-24.588
			c-0.823-2.09-7.737-3.836-9.501-2.383c-0.881,0.729-0.32,1.693-0.1,2.402c5.996,19.162,22.154,32.453,41.311,34.027
			c25.347,2.084,45.829-13.076,51.843-37.648c0.854-3.482,1.167-7.058,1.163-10.673c-0.033-37.185,0.017-74.368-0.093-111.552
			c-0.009-2.922,0.725-3.658,3.6-3.583c7.637,0.198,7.64,0.056,7.64,7.685c0,18.095,0,36.191,0,54.288
			C244.986,206.728,244.939,206.728,244.893,206.728z"/>
	</g>
</g>
<g id="Capa_2">
	<g>
		<rect x="201.958" y="369.304" fill="none" width="240.902" height="111.492"/>
		<path fill="#EAEAEA" d="M205.895,401.047v-30.026h8.543c2.596,0,4.655,0.636,6.177,1.906c1.521,1.27,2.282,2.924,2.282,4.962
			c0,1.703-0.46,3.183-1.382,4.438c-0.921,1.257-2.192,2.151-3.811,2.681v0.084c2.024,0.237,3.644,1.002,4.858,2.293
			s1.822,2.971,1.822,5.036c0,2.568-0.92,4.648-2.764,6.238c-1.843,1.592-4.167,2.388-6.972,2.388H205.895L205.895,401.047z
			 M209.412,374.203v9.695h3.602c1.926,0,3.44-0.464,4.543-1.392c1.103-0.93,1.655-2.237,1.655-3.927
			c0-2.917-1.92-4.377-5.759-4.377H209.412z M209.412,387.06v10.805h4.774c2.066,0,3.667-0.487,4.805-1.466
			c1.137-0.977,1.707-2.316,1.707-4.021c0-3.546-2.415-5.318-7.245-5.318H209.412z"/>
		<path fill="#EAEAEA" d="M245.364,401.047h-3.434v-3.351h-0.083c-1.494,2.569-3.692,3.853-6.596,3.853
			c-2.135,0-3.807-0.564-5.015-1.695c-1.208-1.131-1.812-2.631-1.812-4.502c0-4.006,2.358-6.337,7.077-6.994l6.428-0.9
			c0-3.643-1.472-5.465-4.417-5.465c-2.583,0-4.914,0.88-6.994,2.639v-3.518c2.108-1.341,4.537-2.011,7.287-2.011
			c5.039,0,7.558,2.666,7.558,7.998V401.047L245.364,401.047z M241.93,390.2l-5.171,0.712c-1.591,0.224-2.792,0.617-3.602,1.184
			c-0.81,0.563-1.214,1.567-1.214,3.004c0,1.048,0.373,1.902,1.12,2.565c0.747,0.662,1.742,0.994,2.984,0.994
			c1.702,0,3.109-0.598,4.219-1.79c1.11-1.194,1.664-2.704,1.664-4.533V390.2z"/>
		<path fill="#EAEAEA" d="M269.632,401.047h-3.436v-12.229c0-4.55-1.66-6.826-4.982-6.826c-1.717,0-3.137,0.646-4.262,1.938
			c-1.124,1.29-1.685,2.92-1.685,4.888v12.229h-3.435v-21.441h3.435v3.56h0.084c1.618-2.708,3.962-4.063,7.034-4.063
			c2.346,0,4.139,0.758,5.381,2.272s1.865,3.703,1.865,6.564V401.047L269.632,401.047z"/>
		<path fill="#EAEAEA" d="M293.898,401.047h-4.814l-9.465-10.302h-0.084v10.302h-3.434v-31.743h3.434v20.122h0.084l9.004-9.82h4.504
			l-9.947,10.345L293.898,401.047z"/>
	</g>
</g>
<g id="Capa_4">
	<g>
		<rect x="-33.348" y="226.545" fill="none" width="192.364" height="145.917"/>
		<path fill="#664040" d="M153.517,234.91l-10.996,10.997l-10.997-10.997H153.517z"/>
	</g>
	<g>
		<rect x="175.866" y="228.722" fill="none" width="192.363" height="145.916"/>
		<path fill="#E2E2E2" d="M362.732,237.087l-10.996,10.997l-10.996-10.997H362.732z"/>
	</g>
</g>
</svg>
