<?xml version="1.0" encoding="utf-8"?>
<!-- Generator: Adobe Illustrator 16.0.3, SVG Export Plug-In . SVG Version: 6.00 Build 0)  -->
<!DOCTYPE svg PUBLIC "-//W3C//DTD SVG 1.1//EN" "http://www.w3.org/Graphics/SVG/1.1/DTD/svg11.dtd">
<svg version="1.1" id="Capa_1" xmlns="http://www.w3.org/2000/svg" xmlns:xlink="http://www.w3.org/1999/xlink" x="0px" y="0px"
	 width="500px" height="500px" viewBox="0 0 500 500" enable-background="new 0 0 500 500" xml:space="preserve">
<g id="Capa_3">
	<circle fill="#E24B4B" cx="254.203" cy="250" r="220.333"/>
</g>
<g id="Capa_2">
	<g>
		<rect x="198.238" y="362.771" fill="none" width="280.888" height="129.998"/>
		<path fill="#EAEAEA" d="M202.827,399.783v-35.01h9.962c3.026,0,5.428,0.741,7.201,2.223c1.774,1.48,2.661,3.409,2.661,5.785
			c0,1.986-0.537,3.711-1.61,5.176c-1.074,1.465-2.557,2.508-4.443,3.125v0.099c2.36,0.276,4.248,1.168,5.664,2.673
			c1.416,1.506,2.124,3.464,2.124,5.872c0,2.995-1.074,5.42-3.224,7.274c-2.148,1.855-4.857,2.783-8.13,2.783H202.827
			L202.827,399.783z M206.929,368.484v11.305h4.199c2.246,0,4.012-0.541,5.298-1.623c1.286-1.084,1.929-2.608,1.929-4.578
			c0-3.401-2.238-5.104-6.714-5.104H206.929z M206.929,383.475v12.598h5.565c2.409,0,4.276-0.568,5.604-1.709
			c1.326-1.139,1.99-2.701,1.99-4.688c0-4.135-2.816-6.201-8.447-6.201H206.929z"/>
		<path fill="#EAEAEA" d="M248.848,399.783h-4.004v-3.906h-0.099c-1.741,2.996-4.305,4.492-7.689,4.492
			c-2.49,0-4.439-0.658-5.847-1.978c-1.408-1.317-2.112-3.067-2.112-5.249c0-4.671,2.75-7.389,8.252-8.154l7.495-1.05
			c0-4.248-1.717-6.372-5.151-6.372c-3.011,0-5.729,1.025-8.154,3.076v-4.102c2.458-1.563,5.29-2.344,8.496-2.344
			c5.875,0,8.813,3.108,8.813,9.325V399.783L248.848,399.783z M244.844,387.137l-6.03,0.83c-1.854,0.261-3.255,0.72-4.199,1.38
			c-0.943,0.657-1.416,1.827-1.416,3.503c0,1.221,0.436,2.218,1.307,2.99s2.029,1.16,3.479,1.16c1.985,0,3.625-0.696,4.919-2.088
			c1.294-1.393,1.941-3.152,1.941-5.285V387.137z"/>
		<path fill="#EAEAEA" d="M277.145,399.783h-4.004v-14.258c0-5.306-1.938-7.959-5.812-7.959c-2.002,0-3.657,0.753-4.969,2.26
			c-1.311,1.504-1.965,3.404-1.965,5.699v14.258h-4.004v-25h4.004v4.15h0.098c1.888-3.157,4.621-4.736,8.203-4.736
			c2.734,0,4.825,0.883,6.273,2.649c1.449,1.766,2.174,4.317,2.174,7.653L277.145,399.783L277.145,399.783z"/>
		<path fill="#EAEAEA" d="M305.44,399.783h-5.615l-11.034-12.012h-0.099v12.012h-4.004v-37.012h4.004v23.462h0.099l10.497-11.45
			h5.25l-11.598,12.062L305.44,399.783z"/>
	</g>
</g>
<g>
	<g id="Capa_1_1_">
		<path fill="#664040" d="M270.86,197.98c0,23.384,0.57,46.783-0.134,70.146c-1.046,34.601-29.683,64.311-64.166,67.647
			c-37.238,3.607-69.402-18.616-78.84-54.425c-1.242-4.72-1.618-9.548-2.247-14.352c-0.342-2.622,0.632-3.438,3.239-3.411
			c10.781,0.112,21.564,0.098,32.344,0.008c2.393-0.019,3.272,0.497,3.515,3.214c1.515,16.874,15.215,29.924,32.136,30.954
			c15.867,0.967,31.035-10.446,34.729-26.374c0.744-3.213,0.894-6.623,0.901-9.942c0.069-40.394,0.006-80.787,0.156-121.18
			c0.015-3.728-1.145-4.608-4.629-4.442c-7.693,0.368-6.684-1.083-6.691,6.864c-0.03,38.721-0.061,77.445,0.089,116.166
			c0.016,3.743-0.825,4.883-4.697,4.757c-9.269-0.297-9.275-0.083-9.275-9.164c0-42.671,0.053-85.342-0.092-128.015
			c-0.011-3.647,1.009-4.456,4.476-4.375c10.168,0.234,20.347,0.191,30.517,0.022c2.965-0.049,4.141,0.417,4.131,3.835
			c-0.137,45.862-0.029,91.721-0.131,137.579c-0.054,23.667-16.59,42.988-40.069,47.233c-21.979,3.972-44.1-8.711-52.537-30.125
			c-1.009-2.56-9.477-4.697-11.64-2.917c-1.08,0.891-0.394,2.073-0.122,2.942c7.346,23.474,27.142,39.759,50.613,41.688
			c31.054,2.551,56.149-16.018,63.518-46.128c1.045-4.265,1.429-8.645,1.423-13.076c-0.042-45.553,0.022-91.11-0.114-136.667
			c-0.011-3.582,0.889-4.482,4.408-4.392c9.357,0.243,9.361,0.068,9.363,9.417c0,22.171,0,44.342,0,66.513
			C270.972,197.98,270.915,197.98,270.86,197.98z"/>
		<g>
			<path fill="#E2E2E2" d="M232.253,197.979c0,23.383-0.573,46.785,0.133,70.147c1.044,34.601,29.682,64.311,64.166,67.649
				c37.24,3.606,69.403-18.618,78.84-54.427c1.243-4.72,1.617-9.548,2.247-14.352c0.342-2.622-0.63-3.44-3.24-3.411
				c-10.78,0.114-21.563,0.098-32.343,0.008c-2.393-0.02-3.271,0.494-3.516,3.214c-1.514,16.875-15.213,29.924-32.134,30.952
				c-15.867,0.969-31.035-10.444-34.729-26.374c-0.744-3.213-0.895-6.623-0.9-9.944c-0.069-40.392-0.007-80.784-0.156-121.177
				c-0.014-3.729,1.146-4.609,4.631-4.442c7.69,0.367,6.683-1.083,6.689,6.862c0.03,38.723,0.061,77.445-0.089,116.167
				c-0.016,3.74,0.825,4.882,4.696,4.76c9.27-0.3,9.275-0.085,9.275-9.17c0-42.668-0.053-85.34,0.093-128.01
				c0.011-3.649-1.008-4.456-4.476-4.377c-10.169,0.234-20.348,0.19-30.52,0.022c-2.965-0.049-4.139,0.417-4.129,3.835
				c0.134,45.859,0.028,91.72,0.133,137.579c0.052,23.664,16.588,42.987,40.067,47.23c21.979,3.977,44.098-8.71,52.537-30.122
				c1.008-2.56,9.479-4.7,11.64-2.919c1.079,0.891,0.393,2.074,0.122,2.941c-7.346,23.479-27.142,39.761-50.611,41.689
				c-31.054,2.555-56.148-16.019-63.517-46.126c-1.045-4.266-1.43-8.646-1.424-13.075c0.041-45.558-0.021-91.114,0.114-136.668
				c0.01-3.581-0.889-4.483-4.412-4.391c-9.355,0.243-9.36,0.069-9.36,9.416c0,22.17,0,44.34,0,66.512
				C232.139,197.979,232.196,197.979,232.253,197.979z"/>
		</g>
	</g>
	<g id="Capa_4">
		<g>
			<rect x="340.342" y="206.737" fill="none" width="235.678" height="178.772"/>
			<path fill="#664040" d="M374.022,216.986l-13.472,13.473l-13.473-13.473H374.022z"/>
		</g>
		<g>
			<rect x="125.406" y="206.738" fill="none" width="235.677" height="178.771"/>
			<path fill="#E2E2E2" d="M159.088,216.987l-13.472,13.472l-13.473-13.472H159.088z"/>
		</g>
	</g>
</g>
</svg>
