<?xml version="1.0" encoding="utf-8"?>
<!-- Generator: Adobe Illustrator 16.0.3, SVG Export Plug-In . SVG Version: 6.00 Build 0)  -->
<!DOCTYPE svg PUBLIC "-//W3C//DTD SVG 1.1//EN" "http://www.w3.org/Graphics/SVG/1.1/DTD/svg11.dtd">
<svg version="1.1" id="Capa_1" xmlns="http://www.w3.org/2000/svg" xmlns:xlink="http://www.w3.org/1999/xlink" x="0px" y="0px"
	 width="500px" height="500px" viewBox="0 0 500 500" enable-background="new 0 0 500 500" xml:space="preserve">
<g id="Capa_3">
	<circle fill="#E24B4B" cx="248.203" cy="250" r="220.333"/>
</g>
<g id="Capa_1_1_">
	<path fill="#664040" d="M284.986,185.396c0,25.232,0.616,50.481-0.144,75.69c-1.128,37.334-32.029,69.393-69.237,72.994
		c-40.181,3.893-74.888-20.088-85.071-58.727c-1.341-5.094-1.746-10.303-2.425-15.486c-0.368-2.828,0.682-3.711,3.496-3.682
		c11.632,0.123,23.27,0.105,34.901,0.01c2.582-0.02,3.531,0.535,3.792,3.467c1.634,18.209,16.417,32.289,34.675,33.4
		c17.122,1.043,33.487-11.271,37.474-28.457c0.802-3.467,0.965-7.146,0.972-10.73c0.075-43.585,0.005-87.171,0.167-130.757
		c0.017-4.022-1.236-4.972-4.996-4.793c-8.301,0.397-7.212-1.168-7.22,7.406c-0.033,41.782-0.065,83.567,0.097,125.348
		c0.017,4.039-0.89,5.27-5.067,5.133c-10.001-0.318-10.008-0.088-10.008-9.889c0-46.043,0.056-92.087-0.101-138.132
		c-0.011-3.937,1.089-4.808,4.831-4.722c10.972,0.253,21.955,0.206,32.929,0.024c3.2-0.053,4.468,0.45,4.457,4.138
		c-0.146,49.487-0.03,98.971-0.142,148.453c-0.058,25.539-17.899,46.387-43.236,50.969c-23.715,4.283-47.584-9.4-56.688-32.508
		c-1.088-2.762-10.227-5.068-12.56-3.146c-1.165,0.961-0.424,2.236-0.133,3.174c7.927,25.328,29.288,42.9,54.614,44.982
		c33.508,2.754,60.586-17.281,68.538-49.773c1.127-4.6,1.541-9.326,1.535-14.109c-0.046-49.154,0.023-98.312-0.124-147.469
		c-0.011-3.865,0.959-4.837,4.757-4.739c10.098,0.262,10.102,0.074,10.104,10.162c0,23.924,0,47.846,0,71.771
		C285.108,185.396,285.048,185.396,284.986,185.396z"/>
	<g>
		<path fill="#E2E2E2" d="M325.614,185.393c0,25.232,0.618,50.483-0.144,75.691c-1.126,37.334-32.028,69.393-69.236,72.996
			c-40.184,3.891-74.891-20.09-85.072-58.729c-1.341-5.094-1.746-10.303-2.425-15.486c-0.369-2.828,0.681-3.711,3.496-3.682
			c11.634,0.125,23.268,0.105,34.9,0.01c2.581-0.021,3.53,0.533,3.793,3.467c1.632,18.211,16.415,32.289,34.673,33.4
			c17.122,1.045,33.488-11.271,37.473-28.459c0.804-3.467,0.966-7.146,0.973-10.73c0.074-43.584,0.007-87.169,0.169-130.755
			c0.015-4.022-1.237-4.973-4.997-4.793c-8.3,0.396-7.212-1.168-7.219,7.405c-0.033,41.784-0.065,83.567,0.096,125.349
			c0.017,4.037-0.89,5.268-5.067,5.135c-10.002-0.322-10.009-0.09-10.009-9.893c0-46.042,0.057-92.085-0.1-138.128
			c-0.012-3.938,1.088-4.808,4.83-4.723c10.972,0.253,21.955,0.205,32.932,0.024c3.198-0.053,4.465,0.45,4.454,4.139
			c-0.145,49.483-0.03,98.969-0.143,148.452c-0.056,25.535-17.898,46.385-43.235,50.965c-23.716,4.289-47.583-9.398-56.688-32.504
			c-1.087-2.762-10.228-5.072-12.56-3.148c-1.165,0.961-0.423,2.238-0.132,3.174c7.926,25.332,29.287,42.902,54.612,44.984
			c33.508,2.756,60.586-17.285,68.537-49.773c1.128-4.602,1.543-9.328,1.536-14.107c-0.044-49.158,0.023-98.314-0.123-147.471
			c-0.011-3.864,0.959-4.837,4.761-4.737c10.095,0.262,10.1,0.074,10.1,10.16c0,23.922,0,47.845,0,71.769
			C325.737,185.393,325.675,185.393,325.614,185.393z"/>
	</g>
</g>
<g id="Capa_2">
	<g>
		<rect x="191.648" y="370.002" fill="none" width="280.888" height="129.998"/>
		<path fill="#EAEAEA" d="M196.238,407.014v-35.01h9.962c3.026,0,5.428,0.741,7.201,2.223c1.774,1.48,2.661,3.409,2.661,5.785
			c0,1.986-0.537,3.711-1.61,5.176c-1.074,1.465-2.557,2.508-4.443,3.125v0.099c2.36,0.276,4.248,1.168,5.664,2.673
			c1.416,1.506,2.124,3.464,2.124,5.872c0,2.995-1.074,5.42-3.224,7.274c-2.148,1.855-4.857,2.783-8.13,2.783H196.238
			L196.238,407.014z M200.339,375.715v11.305h4.199c2.246,0,4.012-0.541,5.298-1.623c1.286-1.084,1.929-2.608,1.929-4.578
			c0-3.401-2.238-5.104-6.714-5.104H200.339z M200.339,390.705v12.598h5.565c2.409,0,4.276-0.568,5.604-1.709
			c1.326-1.139,1.99-2.701,1.99-4.688c0-4.135-2.816-6.201-8.447-6.201H200.339z"/>
		<path fill="#EAEAEA" d="M242.258,407.014h-4.004v-3.906h-0.099c-1.741,2.996-4.305,4.492-7.689,4.492
			c-2.49,0-4.439-0.658-5.847-1.978c-1.408-1.317-2.112-3.067-2.112-5.249c0-4.671,2.75-7.389,8.252-8.154l7.495-1.05
			c0-4.248-1.717-6.372-5.151-6.372c-3.011,0-5.729,1.025-8.154,3.076v-4.102c2.458-1.563,5.29-2.344,8.496-2.344
			c5.875,0,8.813,3.108,8.813,9.325V407.014L242.258,407.014z M238.254,394.367l-6.03,0.83c-1.854,0.261-3.255,0.72-4.199,1.38
			c-0.943,0.657-1.416,1.827-1.416,3.503c0,1.221,0.436,2.218,1.307,2.99s2.029,1.16,3.479,1.16c1.985,0,3.625-0.696,4.919-2.088
			c1.294-1.393,1.941-3.152,1.941-5.285V394.367z"/>
		<path fill="#EAEAEA" d="M270.555,407.014h-4.004v-14.258c0-5.306-1.938-7.959-5.812-7.959c-2.002,0-3.657,0.753-4.969,2.26
			c-1.311,1.504-1.965,3.404-1.965,5.699v14.258h-4.004v-25h4.004v4.15h0.098c1.888-3.157,4.621-4.736,8.203-4.736
			c2.734,0,4.825,0.883,6.273,2.649c1.449,1.766,2.174,4.317,2.174,7.653L270.555,407.014L270.555,407.014z"/>
		<path fill="#EAEAEA" d="M298.85,407.014h-5.615L282.2,395.002h-0.099v12.012h-4.004v-37.012h4.004v23.462h0.099l10.497-11.45h5.25
			l-11.598,12.062L298.85,407.014z"/>
	</g>
</g>
<g id="Capa_4">
	<g>
		<rect x="125.554" y="214.699" fill="none" width="254.307" height="192.9"/>
		<path fill="#664040" d="M161.898,225.757l-14.537,14.538l-14.537-14.538H161.898z"/>
	</g>
	<g>
		<rect x="165.251" y="214.699" fill="none" width="254.305" height="192.898"/>
		<path fill="#E2E2E2" d="M201.595,225.758l-14.538,14.538l-14.537-14.538H201.595z"/>
	</g>
</g>
</svg>
