<?xml version="1.0" encoding="utf-8"?>
<!-- Generator: Adobe Illustrator 16.0.3, SVG Export Plug-In . SVG Version: 6.00 Build 0)  -->
<!DOCTYPE svg PUBLIC "-//W3C//DTD SVG 1.1//EN" "http://www.w3.org/Graphics/SVG/1.1/DTD/svg11.dtd">
<svg version="1.1" xmlns="http://www.w3.org/2000/svg" xmlns:xlink="http://www.w3.org/1999/xlink" x="0px" y="0px" width="500px"
	 height="500px" viewBox="0 0 500 500" enable-background="new 0 0 500 500" xml:space="preserve">
<g id="Capa_3">
	<circle fill-rule="evenodd" clip-rule="evenodd" fill="#E24B4B" cx="248.203" cy="250" r="220.333"/>
</g>
<g id="Capa_1">
	<path fill-rule="evenodd" clip-rule="evenodd" fill="#664040" d="M229.351,185.289c0,27.12-0.662,54.259,0.154,81.354
		c1.213,40.129,34.426,74.586,74.418,78.457c43.189,4.184,80.492-21.592,91.438-63.121c1.441-5.475,1.875-11.074,2.605-16.645
		c0.396-3.041-0.732-3.988-3.756-3.957c-12.504,0.131-25.01,0.113-37.512,0.01c-2.775-0.021-3.795,0.576-4.076,3.727
		c-1.758,19.57-17.646,34.705-37.27,35.9c-18.402,1.121-35.992-12.115-40.277-30.588c-0.863-3.727-1.037-7.682-1.045-11.533
		c-0.08-46.846-0.006-93.694-0.18-140.542c-0.018-4.323,1.328-5.344,5.369-5.152c8.922,0.427,7.752-1.256,7.76,7.96
		c0.035,44.908,0.07,89.82-0.104,134.727c-0.018,4.34,0.957,5.664,5.447,5.518c10.75-0.344,10.756-0.096,10.756-10.629
		c0-49.489-0.061-98.979,0.109-148.47c0.012-4.231-1.17-5.168-5.191-5.075c-11.793,0.272-23.598,0.221-35.393,0.026
		c-3.439-0.057-4.803,0.484-4.791,4.448c0.158,53.19,0.033,106.377,0.152,159.561c0.063,27.449,19.24,49.857,46.471,54.781
		c25.49,4.607,51.146-10.102,60.932-34.938c1.17-2.969,10.992-5.449,13.5-3.383c1.252,1.033,0.455,2.404,0.141,3.412
		c-8.52,27.225-31.479,46.111-58.699,48.35c-36.016,2.959-65.119-18.578-73.667-53.498c-1.211-4.947-1.656-10.027-1.65-15.166
		c0.049-52.833-0.025-105.669,0.133-158.504c0.012-4.154-1.031-5.199-5.113-5.094c-10.852,0.282-10.857,0.08-10.859,10.922
		c0,25.714,0,51.427,0,77.141C229.22,185.289,229.285,185.289,229.351,185.289z"/>
	<g>
		<path fill-rule="evenodd" clip-rule="evenodd" fill="#E2E2E2" d="M274.125,185.286c0,27.12,0.664,54.261-0.154,81.356
			c-1.211,40.129-34.425,74.586-74.417,78.459c-43.191,4.182-80.494-21.594-91.438-63.123c-1.441-5.475-1.876-11.074-2.606-16.645
			c-0.397-3.041,0.731-3.99,3.758-3.957c12.503,0.133,25.008,0.113,37.511,0.01c2.775-0.023,3.794,0.572,4.077,3.727
			c1.755,19.572,17.644,34.705,37.268,35.898c18.403,1.123,35.994-12.113,40.277-30.588c0.864-3.727,1.038-7.682,1.045-11.533
			c0.08-46.846,0.008-93.694,0.182-140.541c0.016-4.324-1.329-5.345-5.371-5.152c-8.92,0.426-7.751-1.256-7.759,7.959
			c-0.035,44.91-0.07,89.82,0.104,134.729c0.017,4.338-0.957,5.662-5.448,5.52c-10.75-0.348-10.757-0.098-10.757-10.635
			c0-49.487,0.061-98.977-0.107-148.465c-0.013-4.232,1.169-5.168,5.191-5.076c11.793,0.272,23.598,0.22,35.396,0.026
			c3.438-0.057,4.8,0.484,4.788,4.448c-0.155,53.187-0.033,106.375-0.153,159.563c-0.061,27.445-19.239,49.855-46.471,54.777
			c-25.491,4.611-51.144-10.102-60.931-34.936c-1.169-2.969-10.993-5.451-13.5-3.385c-1.252,1.033-0.455,2.406-0.141,3.412
			c8.519,27.229,31.478,46.113,58.698,48.35c36.016,2.963,65.12-18.578,73.666-53.496c1.213-4.947,1.658-10.027,1.652-15.164
			c-0.047-52.837,0.025-105.672-0.133-158.507c-0.012-4.153,1.031-5.199,5.117-5.092c10.85,0.282,10.855,0.08,10.855,10.92
			c0,25.712,0,51.425,0,77.139C274.258,185.286,274.191,185.286,274.125,185.286z"/>
	</g>
</g>
<g id="Capa_2">
	<g>
		<rect x="193.648" y="366.002" fill-rule="evenodd" clip-rule="evenodd" fill="none" width="280.888" height="129.998"/>
		<path fill="#EAEAEA" d="M198.238,403.014v-35.01h9.961c3.027,0,5.428,0.741,7.202,2.222c1.774,1.481,2.661,3.41,2.661,5.786
			c0,1.986-0.537,3.711-1.611,5.176s-2.556,2.507-4.443,3.125v0.098c2.36,0.277,4.248,1.168,5.664,2.673
			c1.416,1.506,2.124,3.464,2.124,5.872c0,2.995-1.074,5.42-3.223,7.275s-4.858,2.783-8.13,2.783H198.238z M202.339,371.715v11.304
			h4.199c2.246,0,4.012-0.541,5.298-1.623c1.286-1.083,1.929-2.608,1.929-4.578c0-3.401-2.238-5.103-6.714-5.103H202.339z
			 M202.339,386.705v12.598h5.566c2.409,0,4.276-0.569,5.603-1.709c1.326-1.139,1.99-2.701,1.99-4.688
			c0-4.134-2.816-6.201-8.447-6.201H202.339z"/>
		<path fill="#EAEAEA" d="M244.258,403.014h-4.004v-3.906h-0.098c-1.742,2.995-4.305,4.492-7.69,4.492
			c-2.49,0-4.439-0.659-5.847-1.978c-1.408-1.318-2.112-3.067-2.112-5.249c0-4.671,2.75-7.389,8.252-8.154l7.495-1.05
			c0-4.248-1.717-6.372-5.151-6.372c-3.011,0-5.729,1.025-8.154,3.076v-4.102c2.458-1.563,5.29-2.344,8.496-2.344
			c5.875,0,8.813,3.109,8.813,9.326V403.014z M240.254,390.367l-6.03,0.83c-1.855,0.261-3.255,0.72-4.199,1.38
			c-0.944,0.658-1.416,1.827-1.416,3.503c0,1.221,0.435,2.218,1.306,2.991c0.871,0.772,2.03,1.159,3.479,1.159
			c1.985,0,3.625-0.696,4.919-2.087c1.294-1.393,1.941-3.153,1.941-5.286V390.367z"/>
		<path fill="#EAEAEA" d="M272.555,403.014h-4.004v-14.258c0-5.306-1.938-7.959-5.811-7.959c-2.002,0-3.658,0.753-4.969,2.259
			c-1.311,1.505-1.965,3.405-1.965,5.7v14.258h-4.004v-25h4.004v4.15h0.098c1.887-3.157,4.621-4.736,8.203-4.736
			c2.734,0,4.825,0.883,6.273,2.649c1.449,1.766,2.174,4.317,2.174,7.653V403.014z"/>
		<path fill="#EAEAEA" d="M300.85,403.014h-5.615l-11.035-12.012h-0.098v12.012h-4.004v-37.012h4.004v23.462h0.098l10.498-11.45
			h5.25l-11.598,12.061L300.85,403.014z"/>
	</g>
</g>
<g id="Capa_4">
	<g>
		<rect x="-124.569" y="195.445" fill-rule="evenodd" clip-rule="evenodd" fill="none" width="273.335" height="207.336"/>
		<path fill="#664040" d="M140.954,207.331l-15.625,15.625l-15.625-15.625H140.954z"/>
	</g>
	<g>
		<rect x="124.71" y="195.446" fill-rule="evenodd" clip-rule="evenodd" fill="none" width="273.334" height="207.335"/>
		<path fill="#E2E2E2" d="M390.231,207.332l-15.625,15.625l-15.625-15.625H390.231z"/>
	</g>
</g>
</svg>
